<?xml version="1.0" encoding="iso-8859-1"?>
<!-- Generator: Adobe Illustrator 21.0.0, SVG Export Plug-In . SVG Version: 6.00 Build 0)  -->
<svg version="1.1" id="Layer_1" xmlns="http://www.w3.org/2000/svg" xmlns:xlink="http://www.w3.org/1999/xlink" x="0px" y="0px"
	 viewBox="0 0 100.353 100.353" style="enable-background:new 0 0 100.353 100.353;" xml:space="preserve">
<path d="M85.244,51.888l0.771-1.005c0.063-0.083,0.118-0.172,0.164-0.267c0.788-1.652,0.826-3.591,0.111-5.607
	c-1.167-3.288-4.379-6.724-7.812-8.355c-0.056-0.027-0.113-0.042-0.17-0.061c-0.062-0.042-0.125-0.085-0.195-0.119
	c-2.416-1.154-5.699-1.728-8.567-1.503c-1.384,0.109-2.619,0.397-3.685,0.842l0.466-2.187c0.021-0.103,0.033-0.208,0.033-0.312
	c0-7.312-10.022-11.979-16.922-11.979c-0.092,0-0.183,0.008-0.271,0.024c-0.088-0.016-0.178-0.024-0.271-0.024
	c-6.897,0-16.916,4.667-16.916,11.979c0,0.105,0.011,0.209,0.033,0.312l0.426,2.003c-1.056-0.471-2.279-0.786-3.652-0.916
	c-2.863-0.271-6.024,0.263-8.463,1.429c-0.066,0.031-0.124,0.072-0.183,0.111c-0.063,0.02-0.127,0.038-0.189,0.068
	c-2.442,1.162-4.85,3.283-6.441,5.672c-1.958,2.941-2.406,5.886-1.26,8.29c0.045,0.094,0.1,0.184,0.164,0.268l1.5,1.955
	c-7.002,5.802-9.472,13.668-5.696,18.697c1.42,1.895,3.603,3.101,6.313,3.487c0.631,0.09,1.281,0.134,1.946,0.134
	c3.822,0,8.103-1.479,11.946-4.12c1.422,1.245,2.883,2.016,4.636,2.016c1.115,0,2.347-0.305,3.762-0.981l0.371-0.173
	c0.055-0.025,0.108-0.054,0.159-0.086c0.451-0.281,1.97-1.286,3.155-2.677c1.588,2.723,3.977,4.25,8.391,4.25h0.541
	c4.237,0,6.613-1.401,8.204-3.932c0.859,1.092,2.073,2.049,3.599,2.777l0.36,0.169c1.42,0.678,2.656,0.983,3.773,0.983
	c2.103,0,3.788-1.099,5.492-2.821c4.186,2.984,9.027,4.703,13.2,4.703c0.668,0,1.32-0.044,1.948-0.133
	c2.587-0.368,4.654-1.496,5.979-3.261C95.701,66.596,92.659,57.98,85.244,51.888z M14.953,71.719
	c-1.904-0.271-3.403-1.072-4.336-2.317c-2.725-3.629-0.468-9.835,5.12-14.519l9.483,12.363c0.366,0.446,0.723,0.87,1.075,1.277
	C22.538,70.976,18.306,72.194,14.953,71.719z M39.018,65.4c-0.037,0.978-1.848,2.631-3.184,3.487l-0.296,0.138
	c-3.042,1.454-4.238,0.902-7.968-3.644L14.9,48.861c-0.797-1.878,0.344-4.059,1.108-5.206c1.284-1.929,3.289-3.701,5.233-4.626
	c0.067-0.032,0.127-0.073,0.187-0.113c0.064-0.02,0.128-0.039,0.19-0.068c1.94-0.927,4.579-1.368,6.886-1.149
	c1.405,0.133,3.898,0.642,4.809,2.55c0.043,0.09,0.104,0.163,0.161,0.24l4.424,20.791c0.365,1.482,0.725,2.839,1.127,4.072
	C39.023,65.368,39.018,65.383,39.018,65.4z M49.437,70.051h-0.541c-5.033,0-6.247-2.022-8.075-9.443l-5.838-27.442
	c0.155-5.132,8.363-8.831,13.914-8.831c0.092,0,0.183-0.008,0.271-0.024c0.088,0.016,0.178,0.024,0.271,0.024
	c5.553,0,13.765,3.699,13.92,8.831l-5.834,27.396C55.654,68.143,54.508,70.051,49.437,70.051z M62.884,69.354l-0.36-0.169
	c-1.865-0.89-3.087-2.206-3.271-3.52c-0.004-0.032-0.016-0.06-0.022-0.091c0.437-1.304,0.824-2.75,1.217-4.341l4.432-20.81
	c0.906-1.875,3.459-2.348,4.903-2.462c2.336-0.183,5.1,0.294,7.038,1.22c0.056,0.027,0.115,0.043,0.172,0.062
	c0.063,0.043,0.127,0.086,0.198,0.12c2.727,1.296,5.365,4.093,6.272,6.65c0.429,1.208,0.451,2.277,0.067,3.182L70.891,65.678
	C67.134,70.262,65.936,70.81,62.884,69.354z M89.593,69.736c-0.849,1.131-2.195,1.834-4.001,2.091
	c-3.672,0.522-8.569-0.991-12.71-3.855c0.121-0.146,0.238-0.282,0.361-0.432l10.179-13.274
	C89.353,59.203,92.233,66.218,89.593,69.736z"/>
</svg>
