<?xml version="1.0" encoding="UTF-8" standalone="no"?> <svg width="64" height="64" viewBox="0 0 64 64" fill="none" xmlns="http://www.w3.org/2000/svg">
<path d="M55.4401 6.99986C55.278 6.65952 55.023 6.37192 54.7045 6.17022C54.386 5.96852 54.017 5.86093 53.6401 5.85986H8.81007C8.43422 5.86197 8.06658 5.96994 7.74928 6.1714C7.43199 6.37286 7.17788 6.65964 7.01608 6.99889C6.85429 7.33813 6.79136 7.7161 6.83452 8.08946C6.87767 8.46282 7.02515 8.81647 7.26007 9.10986L29.2601 36.1599V54.1599H24.2601C23.7296 54.1599 23.2209 54.3706 22.8459 54.7456C22.4708 55.1207 22.2601 55.6294 22.2601 56.1599C22.2601 56.6903 22.4708 57.199 22.8459 57.5741C23.2209 57.9492 23.7296 58.1599 24.2601 58.1599H38.2501C38.7805 58.1599 39.2892 57.9492 39.6643 57.5741C40.0394 57.199 40.2501 56.6903 40.2501 56.1599C40.2501 55.6294 40.0394 55.1207 39.6643 54.7456C39.2892 54.3706 38.7805 54.1599 38.2501 54.1599H33.2501V36.1599L48.1101 17.8299C48.1722 17.7609 48.229 17.6874 48.2801 17.6099L55.1901 9.10986C55.4258 8.81717 55.5742 8.46399 55.6184 8.09081C55.6627 7.71762 55.6008 7.33953 55.4401 6.99986V6.99986ZM45.7301 14.4199H16.7301L13.0001 9.84986H49.4401L45.7301 14.4199Z" fill="black"/>
</svg>
